<mxfile host="app.diagrams.net" agent="Mozilla/5.0 (X11; Ubuntu; Linux x86_64; rv:129.0) Gecko/20100101 Firefox/129.0" version="24.7.12">
  <diagram name="Page-1" id="aeAW5_11bxjghpqHMXWK">
    <mxGraphModel dx="1725" dy="451" grid="1" gridSize="10" guides="1" tooltips="1" connect="1" arrows="1" fold="1" page="1" pageScale="1" pageWidth="850" pageHeight="1100" math="0" shadow="0">
      <root>
        <mxCell id="0" />
        <mxCell id="1" parent="0" />
        <mxCell id="Bie_e7GvbdLS7ZLmAmvj-1" value="" style="endArrow=classic;html=1;rounded=0;strokeWidth=2;" edge="1" parent="1">
          <mxGeometry width="50" height="50" relative="1" as="geometry">
            <mxPoint x="100" y="330" as="sourcePoint" />
            <mxPoint x="899" y="330" as="targetPoint" />
          </mxGeometry>
        </mxCell>
        <mxCell id="Bie_e7GvbdLS7ZLmAmvj-2" value="Time" style="text;html=1;align=center;verticalAlign=middle;resizable=0;points=[];autosize=1;strokeColor=none;fillColor=none;strokeWidth=3;fontSize=14;" vertex="1" parent="1">
          <mxGeometry x="859" y="329" width="50" height="30" as="geometry" />
        </mxCell>
        <mxCell id="Bie_e7GvbdLS7ZLmAmvj-5" value="" style="endArrow=none;dashed=1;html=1;rounded=0;strokeWidth=2;" edge="1" parent="1">
          <mxGeometry width="50" height="50" relative="1" as="geometry">
            <mxPoint x="840" y="560" as="sourcePoint" />
            <mxPoint x="840" y="324" as="targetPoint" />
          </mxGeometry>
        </mxCell>
        <mxCell id="Bie_e7GvbdLS7ZLmAmvj-6" value="" style="endArrow=none;dashed=1;html=1;rounded=0;strokeWidth=2;" edge="1" parent="1">
          <mxGeometry width="50" height="50" relative="1" as="geometry">
            <mxPoint x="720" y="605" as="sourcePoint" />
            <mxPoint x="720" y="323" as="targetPoint" />
          </mxGeometry>
        </mxCell>
        <mxCell id="Bie_e7GvbdLS7ZLmAmvj-7" value="" style="endArrow=none;dashed=1;html=1;rounded=0;strokeWidth=2;" edge="1" parent="1">
          <mxGeometry width="50" height="50" relative="1" as="geometry">
            <mxPoint x="640" y="521" as="sourcePoint" />
            <mxPoint x="640" y="324" as="targetPoint" />
          </mxGeometry>
        </mxCell>
        <mxCell id="Bie_e7GvbdLS7ZLmAmvj-8" value="" style="endArrow=none;dashed=1;html=1;rounded=0;strokeWidth=2;" edge="1" parent="1">
          <mxGeometry width="50" height="50" relative="1" as="geometry">
            <mxPoint x="520" y="521" as="sourcePoint" />
            <mxPoint x="520" y="324" as="targetPoint" />
          </mxGeometry>
        </mxCell>
        <mxCell id="Bie_e7GvbdLS7ZLmAmvj-15" value="" style="endArrow=none;dashed=1;html=1;rounded=0;strokeWidth=2;" edge="1" parent="1">
          <mxGeometry width="50" height="50" relative="1" as="geometry">
            <mxPoint x="280" y="605" as="sourcePoint" />
            <mxPoint x="280" y="324" as="targetPoint" />
          </mxGeometry>
        </mxCell>
        <mxCell id="Bie_e7GvbdLS7ZLmAmvj-16" value="" style="endArrow=none;dashed=1;html=1;rounded=0;strokeWidth=2;" edge="1" parent="1">
          <mxGeometry width="50" height="50" relative="1" as="geometry">
            <mxPoint x="220" y="521" as="sourcePoint" />
            <mxPoint x="220" y="324" as="targetPoint" />
          </mxGeometry>
        </mxCell>
        <mxCell id="Bie_e7GvbdLS7ZLmAmvj-17" value="" style="endArrow=none;dashed=1;html=1;rounded=0;strokeWidth=2;" edge="1" parent="1">
          <mxGeometry width="50" height="50" relative="1" as="geometry">
            <mxPoint x="101" y="521" as="sourcePoint" />
            <mxPoint x="101" y="324" as="targetPoint" />
          </mxGeometry>
        </mxCell>
        <mxCell id="Bie_e7GvbdLS7ZLmAmvj-18" value="" style="endArrow=classic;startArrow=classic;html=1;rounded=0;strokeWidth=2;" edge="1" parent="1">
          <mxGeometry width="50" height="50" relative="1" as="geometry">
            <mxPoint x="100" y="310" as="sourcePoint" />
            <mxPoint x="520" y="310" as="targetPoint" />
          </mxGeometry>
        </mxCell>
        <mxCell id="Bie_e7GvbdLS7ZLmAmvj-19" value="" style="endArrow=classic;startArrow=classic;html=1;rounded=0;strokeWidth=2;" edge="1" parent="1">
          <mxGeometry width="50" height="50" relative="1" as="geometry">
            <mxPoint x="100" y="260" as="sourcePoint" />
            <mxPoint x="720" y="261" as="targetPoint" />
          </mxGeometry>
        </mxCell>
        <mxCell id="Bie_e7GvbdLS7ZLmAmvj-20" value="" style="endArrow=classic;startArrow=classic;html=1;rounded=0;strokeWidth=2;" edge="1" parent="1">
          <mxGeometry width="50" height="50" relative="1" as="geometry">
            <mxPoint x="220" y="389" as="sourcePoint" />
            <mxPoint x="280" y="389" as="targetPoint" />
            <Array as="points">
              <mxPoint x="250" y="389" />
            </Array>
          </mxGeometry>
        </mxCell>
        <mxCell id="Bie_e7GvbdLS7ZLmAmvj-21" value="" style="endArrow=classic;startArrow=classic;html=1;rounded=0;strokeWidth=2;" edge="1" parent="1">
          <mxGeometry width="50" height="50" relative="1" as="geometry">
            <mxPoint x="100" y="389" as="sourcePoint" />
            <mxPoint x="220" y="389" as="targetPoint" />
            <Array as="points">
              <mxPoint x="120" y="389" />
            </Array>
          </mxGeometry>
        </mxCell>
        <mxCell id="Bie_e7GvbdLS7ZLmAmvj-22" value="" style="endArrow=classic;startArrow=classic;html=1;rounded=0;strokeWidth=2;" edge="1" parent="1">
          <mxGeometry width="50" height="50" relative="1" as="geometry">
            <mxPoint x="520" y="390" as="sourcePoint" />
            <mxPoint x="640" y="390" as="targetPoint" />
            <Array as="points">
              <mxPoint x="550" y="390" />
            </Array>
          </mxGeometry>
        </mxCell>
        <mxCell id="Bie_e7GvbdLS7ZLmAmvj-23" value="" style="endArrow=classic;startArrow=classic;html=1;rounded=0;strokeWidth=2;" edge="1" parent="1">
          <mxGeometry width="50" height="50" relative="1" as="geometry">
            <mxPoint x="720" y="390" as="sourcePoint" />
            <mxPoint x="840" y="390" as="targetPoint" />
            <Array as="points">
              <mxPoint x="750" y="390" />
            </Array>
          </mxGeometry>
        </mxCell>
        <mxCell id="Bie_e7GvbdLS7ZLmAmvj-24" value="" style="endArrow=classic;startArrow=classic;html=1;rounded=0;strokeWidth=2;" edge="1" parent="1">
          <mxGeometry width="50" height="50" relative="1" as="geometry">
            <mxPoint x="640" y="390" as="sourcePoint" />
            <mxPoint x="720" y="390" as="targetPoint" />
            <Array as="points">
              <mxPoint x="670" y="390" />
            </Array>
          </mxGeometry>
        </mxCell>
        <mxCell id="Bie_e7GvbdLS7ZLmAmvj-25" value="&amp;nbsp;" style="text;whiteSpace=wrap;html=1;" vertex="1" parent="1">
          <mxGeometry x="-50" y="430" width="40" height="40" as="geometry" />
        </mxCell>
        <mxCell id="Bie_e7GvbdLS7ZLmAmvj-27" value="&lt;font style=&quot;font-size: 14px;&quot;&gt;δt&lt;sub&gt;ww&lt;/sub&gt;&lt;/font&gt;" style="text;html=1;align=center;verticalAlign=middle;resizable=0;points=[];autosize=1;strokeColor=none;fillColor=none;fontFamily=Tahoma;fontSize=14;" vertex="1" parent="1">
          <mxGeometry x="745" y="350" width="60" height="30" as="geometry" />
        </mxCell>
        <mxCell id="Bie_e7GvbdLS7ZLmAmvj-28" value="&lt;font style=&quot;font-size: 14px;&quot;&gt;δt&lt;sub&gt;tx2&lt;/sub&gt;&lt;/font&gt;" style="text;html=1;align=center;verticalAlign=middle;resizable=0;points=[];autosize=1;strokeColor=none;fillColor=none;fontFamily=Tahoma;fontSize=14;" vertex="1" parent="1">
          <mxGeometry x="660" y="350" width="50" height="30" as="geometry" />
        </mxCell>
        <mxCell id="Bie_e7GvbdLS7ZLmAmvj-29" value="&lt;font style=&quot;font-size: 14px;&quot;&gt;δt&lt;sub&gt;detect&lt;/sub&gt;&lt;/font&gt;" style="text;html=1;align=center;verticalAlign=middle;resizable=0;points=[];autosize=1;strokeColor=none;fillColor=none;fontFamily=Tahoma;fontSize=14;" vertex="1" parent="1">
          <mxGeometry x="540" y="350" width="70" height="30" as="geometry" />
        </mxCell>
        <mxCell id="Bie_e7GvbdLS7ZLmAmvj-30" value="&lt;font style=&quot;font-size: 14px;&quot;&gt;δt&lt;sub&gt;tx1&lt;/sub&gt;&lt;/font&gt;" style="text;html=1;align=center;verticalAlign=middle;resizable=0;points=[];autosize=1;strokeColor=none;fillColor=none;fontFamily=Tahoma;fontSize=14;" vertex="1" parent="1">
          <mxGeometry x="230" y="350" width="50" height="30" as="geometry" />
        </mxCell>
        <mxCell id="Bie_e7GvbdLS7ZLmAmvj-31" value="&lt;font style=&quot;font-size: 14px;&quot;&gt;δt&lt;sub&gt;detect&lt;/sub&gt;&lt;/font&gt;" style="text;html=1;align=center;verticalAlign=middle;resizable=0;points=[];autosize=1;strokeColor=none;fillColor=none;fontFamily=Tahoma;fontSize=14;" vertex="1" parent="1">
          <mxGeometry x="120" y="350" width="70" height="30" as="geometry" />
        </mxCell>
        <mxCell id="Bie_e7GvbdLS7ZLmAmvj-32" value="&lt;font style=&quot;font-size: 14px;&quot;&gt;δt&lt;sub&gt;S-wave&lt;/sub&gt;&lt;/font&gt;" style="text;html=1;align=center;verticalAlign=middle;resizable=0;points=[];autosize=1;strokeColor=none;fillColor=none;fontFamily=Tahoma;fontSize=14;" vertex="1" parent="1">
          <mxGeometry x="245" y="270" width="80" height="30" as="geometry" />
        </mxCell>
        <mxCell id="Bie_e7GvbdLS7ZLmAmvj-33" value="&lt;font style=&quot;font-size: 14px;&quot;&gt;δt&lt;sub&gt;sys-latency&lt;/sub&gt;&lt;/font&gt;" style="text;html=1;align=center;verticalAlign=middle;resizable=0;points=[];autosize=1;strokeColor=none;fillColor=none;fontFamily=Tahoma;fontSize=14;" vertex="1" parent="1">
          <mxGeometry x="350" y="220" width="100" height="30" as="geometry" />
        </mxCell>
        <mxCell id="Bie_e7GvbdLS7ZLmAmvj-34" value="" style="rounded=0;whiteSpace=wrap;html=1;fillStyle=dashed;fillColor=#FF8000;strokeColor=none;dashed=1;dashPattern=1 4;rotation=-90;gradientColor=none;direction=south;allowArrows=1;" vertex="1" parent="1">
          <mxGeometry x="745" y="405" width="190" height="38.99" as="geometry" />
        </mxCell>
        <mxCell id="Bie_e7GvbdLS7ZLmAmvj-39" value="" style="rounded=0;whiteSpace=wrap;html=1;fillStyle=dashed;fillColor=#FF8000;strokeColor=none;dashed=1;dashPattern=1 4;rotation=-90;gradientColor=none;direction=south;allowArrows=1;" vertex="1" parent="1">
          <mxGeometry x="625" y="405" width="190" height="38.99" as="geometry" />
        </mxCell>
        <mxCell id="Bie_e7GvbdLS7ZLmAmvj-40" value="" style="rounded=0;whiteSpace=wrap;html=1;fillStyle=dashed;fillColor=#FF8000;strokeColor=none;dashed=1;dashPattern=1 4;rotation=-90;gradientColor=none;direction=south;allowArrows=1;" vertex="1" parent="1">
          <mxGeometry x="186" y="404" width="190" height="38.99" as="geometry" />
        </mxCell>
        <mxCell id="Bie_e7GvbdLS7ZLmAmvj-42" value="Other EN&lt;br&gt;receives&lt;br&gt;S-wave" style="text;html=1;align=center;verticalAlign=middle;resizable=0;points=[];autosize=1;strokeColor=none;fillColor=none;strokeWidth=3;fontSize=14;" vertex="1" parent="1">
          <mxGeometry x="800" y="555" width="80" height="60" as="geometry" />
        </mxCell>
        <mxCell id="Bie_e7GvbdLS7ZLmAmvj-43" value="Other EN&lt;br&gt;receives&lt;br&gt;EEW" style="text;html=1;align=center;verticalAlign=middle;resizable=0;points=[];autosize=1;strokeColor=none;fillColor=none;strokeWidth=3;fontSize=14;" vertex="1" parent="1">
          <mxGeometry x="680" y="610" width="80" height="60" as="geometry" />
        </mxCell>
        <mxCell id="Bie_e7GvbdLS7ZLmAmvj-44" value="&lt;div&gt;VN&lt;br&gt;issues&lt;br&gt;&lt;/div&gt;verified&lt;br&gt;EEW" style="text;html=1;align=center;verticalAlign=middle;resizable=0;points=[];autosize=1;strokeColor=none;fillColor=none;strokeWidth=3;fontSize=14;" vertex="1" parent="1">
          <mxGeometry x="605" y="520" width="70" height="80" as="geometry" />
        </mxCell>
        <mxCell id="Bie_e7GvbdLS7ZLmAmvj-45" value="&lt;div&gt;S-Wave&lt;/div&gt;&lt;div&gt;arrives @VN&lt;br&gt;&lt;/div&gt;" style="text;html=1;align=center;verticalAlign=middle;resizable=0;points=[];autosize=1;strokeColor=none;fillColor=none;strokeWidth=3;fontSize=14;" vertex="1" parent="1">
          <mxGeometry x="475" y="535" width="100" height="50" as="geometry" />
        </mxCell>
      </root>
    </mxGraphModel>
  </diagram>
</mxfile>
